<svg xmlns="http://www.w3.org/2000/svg" width="512" height="512"><path fill="#EDCF5C" d="M265 118v2l6-2 2 5 2-2v2l14 1c11 0 21 1 31 7l4 1v2l2 5h2v2h2l5 2 3-1 5 1c4 2 7 3 11 3l5 1-1 3h3v3l5-1 1 3 4 13 1 4h2l2 2 2 1v2h2l1 2 1 3 3 1v2h2l1 3 5 7c4 7 4 14 3 22 0 6 3 11 7 16l3 6 2 3 1 13 2 1h-2l1 4h-2v3l-3 9v6l-1 2h-3l1 3 1 3v4c2 6 1 11-2 17l-5 2-1 5-9 7h-3v2l-6 1c-3 1-3 3-4 5l-4 2c-3 1-3 1-5 4h-3l-1 3-3 1-1 2h-5c0 4 1 7 3 10 2 6 0 10-2 16h-2v7l1 1a96 96 0 0 1 0 10c-1 4-2 5-5 7l-6 1v2l-3-1a159 159 0 0 0-32-3l-4 2v-2h-2v-2l-10 3v-2l-4 1v2c-5 1-9 2-15 1l-8 1v-2l-2 1h-10v2l-4-1-11 1a128 128 0 0 1-28 2c-14 1-14 1-20-3-4-5-4-5-4-8h-3l2-5-3-1v-10c0-4 0-4 2-7l1-3-3-5c-2-5 0-10 1-15l-2-6-3-2-1-6-2-1-4-1-2-1c-5-1-9-3-13-6l-5-3-4-3-8-3c-4-2-5-5-7-9l-1-2c-4-9-8-17-5-27l1-2 2-9 2-3-1-3-1-3 2-3h-2l-1-17-1-6h2l4-4 1-5 1-2c2-6 3-12 2-19l1-5h-2v-8h3l3-6h2l1-2c1-3 2-4 5-6l1-3c4-2 9-2 14-2v-2l9-3 1-4h3l1-2 4-8h2v-2c1-3 3-4 6-6l3-3 1 1c25 1 25 1 47-9l2-2c7-7 15-8 24-5Z"/><path fill="#E4B750" d="m129 251 4 1-1 11h2v2c-2 8-2 15-2 23l3 1v4h2l1 2 3 3h3l4 1 2 6c3 3 7 5 11 6v3h2c3 0 3 0 5 2l4-1v3l2 1 3 4 1 2 4 1c5 2 8 4 12 8l6 2v2h3v2h3l10 5 2 2 4 3v2l4 1v2h5v2l1 3v2l3 7h3l1 6h2v2h2v2l4 1 1 5h-6v2l4-1v2h13l1 5-10 1v2l-4-1-11 1c-9 2-17 2-26 2h-2c-14 1-14 1-20-3-4-5-4-5-4-8h-3l2-5-3-1v-10c0-4 0-4 2-7l1-3-3-5c-2-5 0-10 1-15l-2-6-3-2-1-6-2-1-4-1-2-1c-5-1-9-3-13-6l-5-3-4-3-8-3c-4-2-5-5-7-9l-1-2c-4-9-8-17-5-27l1-2 2-9 2-3 1-6Z"/><path fill="#EAD182" d="m390 233 3 1c6 10 9 19 7 31h-2l-1 3-1 4-3 1v2l1 11v10c0 6-2 10-7 14l-1 3c-3 4-7 6-12 8l-2 1-1 5h2v2l-6 2-2-1 1-2 4 1-1-5-2-1 1 3-5-1v-3h3v-2h7l1-5h3l1-7-3-1 1-5-2-1-1-8-4-1 2-1 2-5-1-5v-7h2v-5l3-1 4-3-4 1-1-3-3 1-8 4 1-4 3-1-2-2-5 2-1-6h-2l-1-6 3-2c5-3 5-6 6-11 2-3 4-3 7-4l1 2 2-2c5-3 8-4 13-1Z"/><path fill="#E6BB55" d="m369 176 4 1v2h2l6 3h2l2 1v2h2l1 3 5 7c4 7 4 14 3 22 0 6 3 11 7 16l3 6 2 3 1 13 2 1h-2l1 4h-2v3l-3 9v6l-1 2h-3l1 3 1 3v4c2 6 1 11-2 17l-5 2-1 5-9 7h-3v2h-2l-2 1h-2l-2 1-1 3-3-1v-5l5-3 3-2 2-1 6-7 3-4h2v-2l1-4v-7a3908 3908 0 0 0 0-19l3-3 2-5h2c1-11-2-19-7-29v-2h-2l-5-2c-5 0-8 1-12 5l-1-2c-3 2-6 3-8 6l-2-1 1-3h3v-2l4-1v-3c1-4 2-8 6-10l8-1 2-13v-2c1-4 0-6-2-8-4-5-4-5-9-8v-2l-2-1-5-2v-3h-2v-2h2v-3Z"/><path fill="#DC944B" d="m367 323 3 1v5l-4 1 2 2-3 1-1 2h-3l-1 3-3 1-1 2h-5c0 4 1 7 3 10 2 6 0 10-2 16h-2l1 11-2 1-2 4-1-3-2-6v-7l3-2c2-4 2-8 2-12-3 0-4 1-7 3l-6 2v3l-5 1v2l-7 1v2c-4 3-4 3-7 3v5l-5 2v-2l-2 1-3 1-3 1-5-1-3-4 2-2c3-3 3-5 4-9 0-5 6-9 9-12l2-2h3l1-2c2-3 5-5 9-6l14-2v-2l14-6h2l8-2v-2l3-1v-2Z"/><path fill="#E4BD6F" d="M400 254h1l-1 11h-2l-1 3-1 4-3 1v2l1 11v10c0 6-2 10-7 14l-1 3c-3 4-7 6-12 8l-2 1-1 5h2v2l-6 2-2-1 1-2 4 1-1-5-2-1 1 3-5-1v-3h3v-2h7l1-5h3l1-7-3-1 1-5-2-1-1-8-4-1 2-1 2-5-1-5v-7h2v-5l6-1v2h2v-2l2-3h5v-3l10 2-1-6h2v-4Z"/><path fill="#F0DC58" d="m190 366 2 1v2h6l2 7 9 2h2l12 3v-2l-12-6c3-2 6 0 9 0l2 1 14 4v3l3 1v2h-2v4c-9 5-16 5-26 5h-6c-9 0-9 0-12-3l-7-11-3-4c0-3 1-5 3-7l4-2Z"/><path fill="#F4E16C" d="M269 266h2c1 4 0 7-1 11v5l-1 1v5c0 4 0 6-2 10h6c0 5 0 8-2 12l-1 5h-1v-7l-4 3h-2l1 3 1 9-4 4-3-9v-5l-3-1v4c0 4-1 6-3 10l-4-1v5l-4 2c-3-3-4-6-6-10l-1-4-2-8h-2v-3h3v-4c3-3 3-3 6-3v-5h4l1 19 2 1-1 7h3c2-9 2-9 0-17l1-4v-2l3-3 2 5h4v-2l3-13c3-6 4-13 5-20Z"/><path fill="#E1AF4F" d="M348 340v2l-2 1 1 8 2 1-4 2-3 2-6 2v3l-5 1v2l-7 1v2c-4 3-4 3-7 3v5l-5 2v-2l-2 1-3 1-3 1-5-1-3-4 2-2c3-3 3-5 4-9 0-4 3-6 6-9l2-1c-1 4-2 6-5 9h-2l1 5 2-3 11-9 2-1a109 109 0 0 1 22-11l3-1 4-1Z"/><path fill="#E4B653" d="m369 176 4 1v2h2l6 3h2l2 1v2h2l1 3 5 7c4 7 4 14 3 22l1 3c0 5-3 9-5 14l-3-1h-10l-5 4-1-2c-3 2-6 3-8 6l-2-1 1-3h3v-2l4-1v-3c1-4 2-8 6-10l8-1 2-13v-2c1-4 0-6-2-8-4-5-4-5-9-8v-2l-2-1-5-2v-3h-2v-2h2v-3Z"/><path fill="#E0A46A" d="m129 251 4 1-1 11h2v2c-2 8-2 15-2 23l3 1v4h2l1 2 3 3h3l4 1 2 6 3 3-10-1v2h2l6 3v2l3 1 11 4v2h3v4l-15-7-5-3-4-3-8-3c-4-2-5-5-7-9l-1-2c-4-9-8-17-5-27l1-2 2-9 2-3 1-6Z"/><path fill="#EBD2A8" d="M145 274c5 5 6 11 7 18l1 3v3l3 1v3l5 1v2l2 1c4 1 5 3 6 7v2l-8-1v-3h-2c-4-1-8-4-11-7v-5l-9-1-2-5h-2v-2l-1-2-2-1-1-7v-7h14Z"/><path fill="#E6C354" d="m346 352 4 1c-1 10-1 10-4 14h-2c0 7 0 7 4 12l3-1v5l-1 3-2 5-1-1-7-1-7-1-1-5 3-1 5-3v-8l-11 1v2h-2l-2 1h-3l-4 2-9 1-3-1h-2v-1l8-1v2l5-2v-5c2-2 4-3 7-3v-2l7-1v-2l5-1v-3l2-1 2-1 3-2 3-2Zm-44 25 2 1Z"/><path fill="#F1DD71" d="m214 223 3 1v2h2v2c1 4 2 7 5 10 3 4 3 8 3 13h2l-1 5h-2l7 22h2l1-18 2 1 1 5 3 1c2 5 2 10 3 16v8h-2v-5l-5-1-1 3-4-1c-4-5-5-10-7-15l-2-4v-6h-2l-4-16h-1v-10h-2l-1-6-1-3v-3l1-1Z"/><path fill="#DA9354" d="m187 338 2 1v2h2v8h-5l-1 5 5 6 1 6-5 3-2 2c0 4 2 7 5 10l3 5 4 5 5 1c5 0 5 0 7 2h-5v4c-6 0-11 0-16-3-4-5-4-5-4-8h-3l2-5-3-1v-10c0-4 0-4 2-7l1-3-2-4c-3-4-2-8-1-13l3-6h5Z"/><path fill="#DCBE5F" d="m297 374 1 2 3 2-1 5 15 2v1h-9v3h6c-3 2-5 2-9 2l-2 2v-2h-2v-2l-10 3v-2l-4 1v2c-5 1-9 2-15 1l-8 1v-2h-2l-1-5h-13v-2l-4 1v-2l10 1 6 1v-2h18v2l7-2-1-3 3-1 7-5 5-2Z"/><path fill="#E7CF80" d="m392 284 1 6 1 3c0 4 0 8-2 12l-5 5-1 3c-3 4-7 6-12 8l-2 1-1 5h2v2l-6 2-2-1 1-2 4 1-1-5-2-1 1 3-5-1v-3h3v-2h7l1-5h3l1-7-3-1 1-5-2-1-1-6 6-7h8v-2l5-2Z"/><path fill="#EFD874" d="m244 131 8 1c4 15 4 15 2 20-3 4-5 6-9 7-3 0-5-1-8-3-3-5-1-11 0-16 1-4 3-6 6-8l1-1Z"/><path fill="#EACE5C" d="m190 366 2 1v2h6l2 7a5691 5691 0 0 0 11 3h3l2 1h4v2h2v2h-9l-10 2h-7c3 3 5 4 9 5v1c-7 1-7 1-11-1l-8-12-3-4c0-3 1-5 3-7l4-2Z"/><path fill="#E7BB4F" d="m239 383 3 2v2l4-1v2h13l1 5-10 1v2l-4-1-12 1c-10 3-20 2-31 2v-4c3-2 4-2 7-2h8c6 0 10 0 15-3l4-1v-4l2-1Z"/><path fill="#DC934C" d="m348 333 2 1-3 1c-5 2-10 6-15 10v2l-2 1c-15 8-15 8-26 19h-1v-6h2l1-2 3-4 1-2 3-5h3l1-2c2-3 5-5 9-6l14-2v-2c5-3 5-3 8-3Z"/><path fill="#E9D06E" d="m364 289 2 1Zm-2 1h2v2l2-1c3 0 4 0 7 2l3 9 1 2v2l-1 1 2 1v8l-4-1-1 5-2-4h2v-2l-6 2 1-3-5-1-1-8 3 1v2h3l-2-2c-2-4-2-8-2-12l-3-1 1-2Z"/><path fill="#EFD6BC" d="M136 224h6l1 6v2l2 1v-2h2v18l-3 1-2-1v-3h-5l-3-5-1-2c-2-6 1-10 3-15Z"/><path fill="#DC9450" d="m129 251 4 1-1 11h2l-1 7-3 1 1 13h-2v10c-5-2-5-2-6-6-2-7-1-12 1-19l2-9 2-3 1-6Z"/><path fill="#F2DEBB" d="M213 316c5 1 8 3 12 7l1 5 2 1c6 3 11 8 15 14v4c-4 0-6-1-10-3-6-5-12-12-15-20l-2-1v-2h-2l-1-5Z"/><path fill="#E8CA62" d="m383 196 5 3v11l-1 3v2l-2 5-5 1-3 1h-2v-2h-6l-1 6-3-2v-2h2v-7h3v2h2v-2l3-5h4l1-2 3 2v-14Z"/><path fill="#E8C555" d="m299 379 1 2 4 3 6 1h5v1h-9v3h6c-3 2-5 2-9 2l-2 2v-2h-2v-2l-10 3v-2l-4 1v2c-5 1-9 2-15 1l-8 1v-2l-2-1h9v-2h5v2c8-1 8-1 14-6l4-1 4-4 3-2Z"/><path fill="#F0DA7A" d="M269 266h2c1 4 0 7-1 11v5l-1 1v5c0 4 0 6-2 10h6c0 5 0 8-2 12l-1 5h-1v-7l-5 3c-2-16 1-30 5-45Z"/><path fill="#E7C96F" d="M133 182h3l1 8h2l2-7 4-1c-1 11-1 11-3 16l-2 1v5c-1 5-1 8-4 11h-2l-1 3h-2l1-2c2-7 4-13 2-21l1-5h-2v-8Z"/><path fill="#EFD797" d="m149 180 8 1-1 9v5l-1 3-2 6-4-1c-2-4-2-6-2-10h-2c1-10 1-10 4-13Z"/><path fill="#E1AA50" d="M139 203c4 2 5 3 7 7a72 72 0 0 1 2 9l1 3-1 6-1-2-4-1v-3l-10 4 1-11h2l3-12Z"/><path fill="#DA8E4D" d="m346 342 4 1c3 4 5 10 5 15l-3 9h-2l1 11-2 1-2 4-1-3-2-6v-7l3-2c2-5 2-9 2-14h-2c-2-3-2-4-2-8l1-1Z"/><path fill="#EFD9B1" d="m197 151-3 9 3 1c2 4 2 8 1 12l-1 2-4-1-1-5-3-1c-3-4-3-7-2-12 3-6 4-6 10-5Z"/><path fill="#E4B75E" d="M386 217h1l1 7-6 4 3 2 1 2h-3c-4 1-6 2-9 5l-1-2c-3 2-6 3-8 6l-2-1 1-3h3v-2l4-1v-3c1-4 2-8 6-10l8-1 1-3Z"/><path fill="#F1E06D" d="m302 234 3 3-1 2-4 9-1 2v5l-4 11c-3 5-3 5-2 10l-1 2h-2v3l-4 1 5-18 2-8h2v-8h2v-2l3-11 2-1Z"/><path fill="#EAC466" d="M146 266v2h3c3 3 3 7 4 11l2 1-1 6c-4-3-6-5-8-10-2-2-2-2-5-2h-9l1-7 4-1 3-1 6 1Z"/><path fill="#ECDB92" d="m389 247 2 1-1 7h4l1-3h3v2l-2 1 2 2 1 7h-4l-1-4h-6l-1 4h-6v-7c0-3 1-5 3-8l5-2Z"/><path fill="#F0DAC0" d="m250 133-1 8h3l-1 7h-4l-2 5h-4l-3-6c1-5 3-8 6-12 2-2 2-2 6-2Z"/><path fill="#DFB84D" d="M143 307h6l3 1c3 0 3 0 5 2l4 1v3h2c3 0 3 0 5 2l4-1v3l2 1c2 1 3 2 4 5l-7-2v3l-3-1v-3h-3v-2l-3-1-11-4v-2l-8-3v-2Z"/><path fill="#E5BF57" d="m186 377 8 1v2l2-1 7-1 2 1 5 1v4h-10l-1 2h-3c3 3 5 4 9 5v1c-7 1-7 1-11-1-4-4-6-9-8-14Z"/><path fill="#EFDD7F" d="m343 376 2 1 6 1v5l-1 3-2 5-1-1-7-1-7-1-1-5 10-3 1-4Z"/><path fill="#F0D961" d="m361 304 3 3-1 5h6l-2 4 6-2v2h-2l1 4h-6v2c-7 4-7 4-10 4l-2-1v-2c5-3 5-3 8-3l2 1-1-5-2 2-4 1-2-1 2-3 1-5 1-2v-2h2v-2Z"/><path fill="#EDCE89" d="M145 274c6 6 6 13 7 21l-3-1-2-4-2-5-6-1v-7l-7-1v5h-1v-7h14Z"/><path fill="#DFA763" d="m171 321 9 4 2 1 4 5h-3v2l3 1v2h2v2h-6v2l-5-5-2-2-1-6-3-1-1-4 1-1Z"/><path fill="#EEDE81" d="m301 360 1 8-7 7-2 2c-2 2-4 3-7 3h-2l4-5h2l-1-4h-3l1-3h4l1-3c1-3 1-3 4-4l5-1Z"/><path fill="#F0DF81" d="m241 375 8 2 2 3 3 3h6v-5l2-1 1 2 3 4 8-1h7l-2 4-3 1v-2h-18v2h-10l-1-7-4-1v-2h-2v-2Z"/><path fill="#EEDC81" d="m346 352 4 1a211 211 0 0 1 0 7l-4 7-6 1h-6c1-6 6-10 10-14l2-2Z"/><path fill="#EFD35D" d="M186 348h3v2l4 1v3l4 1 1 4 4 1 1 4h-5v-2h-3c-4-1-6-2-9-5l-2-6 2-3Z"/><path fill="#E4C374" d="M378 275h7l1 4-2 1 2 3v5h-7l-1 2-5 5v-2l-4-1 2-2c2-2 2-2 2-5v-2h3l2-4 1 3 4 1-5-8Z"/><path fill="#F0DC67" d="m214 223 3 1v2h2v2c1 4 2 7 5 10 3 4 3 8 3 13h2l-1 5h-2l-1 2v-3h-2a2967 2967 0 0 1-5-16v-3l-1-3-1-8-3-1 1-1Z"/><path fill="#F4E396" d="M217 336c7 1 14 7 18 12l1 4 2 1h-5l-3-1-2-1-4-6h-2l-3-3-1-2-1-4Z"/><path fill="#EED38D" d="m140 231 5 2v-2h2v18l-3 1-2-1v-3h-5v-3l4-1-1-11Z"/><path fill="#E4C175" d="M400 254h1l-1 11h-2l-1 4h-2v-2h-2v2h-4l-1 3-1-3h-4v2h-6v-3h3v2h2v-2l2-3h5v-3l10 2-1-6h2v-4Z"/><path fill="#E1C890" d="m366 152 1 3 4 13 1 4h2l2 2 2 1v2h2l2 5-2-2-9-5c-3-2-3-2-4-5v-3l-1-3v-2l-3-1v-2h-2v-6l5-1Z"/><path fill="#F1DC6E" d="M206 313a1870 1870 0 0 1 15 3v2h2l-1 3-3-2-6-3 1 5h2v2l3 1v2h-2v2l-4-1-1-4-4 1v-3l-3-1 2-1-1-6Z"/><path fill="#EFDC7D" d="m190 366 2 1v2h6v5h-4v2h-6l-5-1c0-3 1-5 3-7l4-2Z"/><path fill="#E4B160" d="M337 346c-2 5-6 7-11 10l-7 2c-3 0-5 2-7 3l-2-1c19-15 19-15 27-14Z"/><path fill="#E2AF62" d="m237 369 2 6h2v2h2v2l4 1 1 5c-4 0-6 0-10-2-3-3-4-7-4-12h3v-2Z"/><path fill="#E4C77A" d="m383 196 5 3v11l-1 3v2l-2 5h-6l2-4h2v-20Z"/><path fill="#EFD9B0" d="M154 183c2 3 1 6 1 9l-1 4v3h-2v4h-2l-1-6h2v-2h-2v-4l-3-1 1-5 3 1v-2l4-1Z"/><path fill="#F2E16C" d="m218 277 2 1 1 5h2l3 6 1 2 1 2 1 2 1 2-1 2c-3-1-4-2-5-4l-6-7-4 2-1 1-2-5 7-2 2 2-1-2-1-7Z"/><path fill="#DFBD52" d="m297 374 1 2 3 2-2 2-5 4c-3 3-7 3-11 4l-1-2h4v-2c1-4 2-5 5-7l2-2 4-1Z"/><path fill="#DE9B4E" d="M223 357h4l2 3c1 3 3 5 6 7v2h2v2h-3l1 5-5-1c-3-4-4-6-4-11v-5h-3v-2Z"/><path fill="#EAC974" d="M370 194h3l-1 4h2l1 3-3 4-2 2-1 1-3-3h-4v-5l3-1 4-3 1-2Z"/><path fill="#E5BB65" d="M374 269h3v2h3v3h-2v2l3 1 2 6-4-1-1-2-2 3-5-1 1-8h2v-5Z"/><path fill="#EFD99B" d="m197 151-3 9 3 1c2 4 2 8 1 12l-1 2-4-1v-2l-1-3-2-1 4 1v2l2 1v-8l-5-1 2-11-3-1h7Z"/><path fill="#D8A75C" d="M265 118v2h2v2h-3v-2c-7-1-7-1-14 2l-2 3-8 2-2-1c8-9 15-11 27-8Z"/><path fill="#E1A558" d="M186 329h3l2 2c3 3 5 4 9 5v2h3l1 5-10-4c-4-3-7-5-11-6v-2h3v-2Z"/><path fill="#EFD984" d="m329 288-6 6-8 7-2 2-4 3c-4 4-4 4-6 4 0-3 0-3 2-5 7-7 7-7 10-7l1-3 5-5h2v-2h6Z"/><path fill="#EBCE55" d="m211 372 8 1 2 1 15 4-2 1-4 3-5 1-2-1v-3l-12-6v-1Z"/><path fill="#DC924E" d="m348 362 1 2h3v3h-2l1 11-2 1-2 4-1-3-2-6v-7l3-2 1-3Z"/><path fill="#E2AF4E" d="M336 339c-2 3-5 4-8 5l-14 8-4-1 3-3h3l1-2c1-2 2-3 5-4l2-1c4-2 8-2 12-2Z"/><path fill="#F0D471" d="m149 283 3 1 5 1v2l1 4v5l-1 3v2l2 1h-3l-1-3-1-1c-3-3-3-5-3-8l-2-7Z"/><path fill="#DBC993" d="M396 223c3 1 3 3 4 6a375 375 0 0 0 8 13l1 13 2 1h-2l1 4h-2l-2-17h-2l-2-7-2-1c-3-2-3-4-4-7v-5Z"/><path fill="#DC904C" d="M140 206c5 4 5 4 5 8v3l-4 2v2h-5c0-6 1-10 4-15Z"/><path fill="#D2CFC1" d="M290 388h3l-2 4h-2v-2l-4 1v2c-5 1-9 2-15 1l-8 1v-2l-2-1h9v-2h5v2l5-1h3c3-1 3-3 8-3Z"/><path fill="#E5BF4F" d="M344 368v10l-4 1v-8l-11 1v2l-7 2-2-2 3-1 1-2 7-2h2l11-1Z"/><path fill="#E6BF6C" d="m133 288 2 1v4h2l1 2 3 3h3l4 1 2 6 3 3c-7-1-7-1-10-3v-2l-2-1-7-7-1-7Z"/><path fill="#DEA258" d="m367 323 3 1v5l-4 1 2 2-3 1-1 2h-3l-1 3-3 1 2-8h-5c3-2 6-3 10-3v-2l3-1v-2Z"/><path fill="#E5D29A" d="M379 295h2l1 5 3 1 1 1v-4l5-1v3h-2v3h2l-2 5h-4v-4l-6 1v-10Z"/><path fill="#F3DF74" d="m223 321 7 7 2 2h3l-4-5h3c4 5 8 10 9 16-3 0-3 0-5-2l-2-4-3-1v-2l-2-1c-4-2-6-4-8-8v-2Z"/><path fill="#E8C057" d="m249 127 3 2v3h-4c-3 0-4 0-7 2-4 5-4 10-4 17v7c-4-5-3-12-3-18v-3c2-5 10-8 15-10Z"/><path fill="#DE964D" d="m369 176 4 1v2h2l6 3 1 4h-7l-6-2v-3h-2v-2h2v-3Z"/><path fill="#DD974B" d="M206 343c10 2 10 2 13 5l2 5 2 1v2c-5-1-7-2-11-5v-3l-5-1-1-4Z"/><path fill="#EFDA9F" d="m248 138 1 3h3l-1 7h-4l-2 5h-4l-2-4v-7h1v6l3 1v2h1v-2l1-2v-3l3-6Z"/><path fill="#F3E37B" d="M267 298h6c0 5 0 8-2 12l-1 5h-1v-7l-4 1a764 764 0 0 1 1-7l1-4Z"/><path fill="#EFD988" d="m226 266 4 3c2 5 4 9 4 15l-4-1c-3-5-5-11-4-17Z"/><path fill="#D8CFB8" d="M148 315c6 0 11 1 17 4v2h3v4c-6-2-12-4-17-8l-3-2Z"/><path fill="#E7CC73" d="m241 375 8 2 3 5 6 3v2h-10l-1-7-4-1v-2h-2v-2Z"/><path fill="#E5CC86" d="m392 284 1 6 1 3c0 4 0 8-2 12l-1-2h-2v-3h2c0-5-1-8-4-12v-2l5-2Z"/><path fill="#D8B95A" d="M337 388h8l1 4-6 1v2l-5-1h-3l-3-1-1-2 3-1 6-2Z"/><path fill="#E4C157" d="M306 386h8l8 2v2l2 1c-3 2-7 0-10 0l-2-1-6-1v-3Z"/><path fill="#DFA64C" d="m348 333 2 1-3 1c-5 2-10 6-15 10v2l-4 2-3-4c3-3 6-4 10-5l1-2h4v-2c5-3 5-3 8-3Z"/><path fill="#DC9D4C" d="M143 307h6l1 2c1 2 1 2 5 3h3v2l5 1v2h-4l-3-1-5-2v-2l-8-3v-2Z"/><path fill="#E3C06C" d="m345 377 3 2 3-1v5l-1 3-2 5-2-1-5-2 2-1 2-4v-6Z"/><path fill="#F0DA77" d="m374 253 3 2-3 4h-2v2h-2v2l3 1-8 4 1-4 3-1-2-2-1-2 7-3 1-3Z"/><path fill="#E3C563" d="m242 385 10 1 6 1v-2h18c-2 2-4 2-7 3v-1l-6-1v2h-17v-2l-4 1v-2Z"/><path fill="#E6B35E" d="m219 349 3 1v2l4 1v2h5l1 10-5-5v-4h-3v-2l-4-1-1-4Z"/><path fill="#DBD5C4" d="m368 161 4 11h2l2 2 2 1v2h2l2 5-2-2-9-5c-3-3-2-4-3-8v-6Z"/><path fill="#EDCF69" d="m241 133-1 11v2l-1 6-3 2c0-8 0-15 5-21Z"/><path fill="#E5CC75" d="M191 383c6 1 6 1 8 3h-3c3 3 5 4 9 5v1c-5 0-8 1-12-2-2-3-2-3-2-7Z"/><path fill="#E5D196" d="m379 307 7 2-1 5-7 1v-7l1-1Z"/><path fill="#EAC45B" d="m183 152 1 2-1 2 2 1-1 2-1 12h-3c-1-8-1-12 3-19Z"/><path fill="#EED35B" d="m335 362 2 1-3 5 3-1h7v1l-11 1h-3l-4-2 4-3 3-1 2-1Z"/><path fill="#ECCC6D" d="M318 288h4c-2 5-5 9-10 11l-2 1v-2h2l1-3 1-3 3-1 1-3Z"/><path fill="#DD9B61" d="M129 275h1l1 9h-2v10l-4-2-1-5 4-1-1-2 2-9Z"/><path fill="#E8C864" d="M357 252c2 2 2 2 2 5h2l-2 7h-2c-3-4-2-6-2-11l2-1Z"/><path fill="#F3DC5F" d="m320 336 3 2-2 2v2c-1 3-3 4-5 6l-6 2v-2l4-4c3-2 4-4 5-7l1-1Z"/><path fill="#E1C26D" d="M186 377h5l4 4 4 2v2l-3-1h-4l-2 2-4-9Z"/><path fill="#E2C98C" d="M393 307h3c0 6 0 6-3 9-2 2-2 2-5 2 1-5 2-7 5-11Z"/><path fill="#EFD992" d="M265 289h2l-2 22h-1l-1-8v-2c0-4 0-8 2-12Z"/><path fill="#EAC46F" d="M141 222h2l3 8h2v5l-1-4h-2v2l-3-1-1-7-5-1c2-2 2-2 5-2Z"/><path fill="#F4E3A9" d="m229 345 7 4v3l2 1h-6l-3-5h-2v-2l2-1Z"/><path fill="#E4D09A" d="M395 252h3v2l-2 1 2 2 1 7h-4c-2-4-2-5-1-9l1-3Z"/><path fill="#E4C868" d="m316 130 8 2 1 7-3-1-10-4 4-1v-3Z"/><path fill="#E7CA69" d="M198 372v6l-1 2h-3v-2l-3 1v-2h-6l-1-2 10 1v-2h4v-2Z"/><path fill="#F1DA6D" d="m191 293 3 1v3l6 5c2 2 3 4 3 7l-3-2v-2h-2v-2l-3-1v-2h-2c-2-3-2-3-2-7Z"/><path fill="#F4E16B" d="m321 316 3 3v4h2v-2l2 1-4 8h-1v-5h-2l-2-4h3l-1-5Z"/><path fill="#E2AB4F" d="m129 251 4 1-1 11h2l-1 7-2-1v-11l-3-1 1-6Z"/><path fill="#EDD075" d="m184 152 1 2 5-2-1 2-2 7v4l-2-1-1-7-1-3 1-2Z"/><path fill="#DFA75D" d="m234 367 1 2h2v2h-3l1 5-6-2-2-5h7v-2Z"/><path fill="#DCA664" d="m348 362 1 2h3v3h-2v4h-2l-1-3-2 4 2 1h-2l-1 2-1-6 4-4 1-3Z"/><path fill="#E9C856" d="m176 320 2 1 6 2c3 1 3 1 4 4l1 2-11-4-2-5Z"/><path fill="#E7BA52" d="m333 340-16 8v-3c11-7 11-7 16-5Z"/><path fill="#EEE092" d="m174 327 5 2 2 9c-4-2-5-3-7-7v-4Z"/><path fill="#F1DB76" d="m329 288-7 7-2 2-2 1-1-3 4-5h2v-2h6Z"/><path fill="#D08945" d="M231 132c-5 4-5 4-8 4l-7-1 8-3 2-1 5 1Z"/><path fill="#E6C571" d="M377 320v2l2 1-2 1-3 4-3-1v-5l6-2Z"/><path fill="#F4E16C" d="M278 311c2 4 0 7-1 11l-2 2h-4v-3h-2l1-2 5 3v-3l3-8Z"/><path fill="#E3D4B5" d="M133 186h3l2 15-3-1v-10h-2v-4Z"/><path fill="#E9CC6D" d="m365 240 2 4-8 7v-4h3v-6l3-1Z"/><path fill="#EFD670" d="m374 198 1 3-3 4-2 2-1 1-2-2c0-3 1-5 3-7l4-1Z"/><path fill="#E4E2DD" d="m190 133 4 3-5 2v2l-3 1-2 3h-2c0-3 1-4 3-6l3-2 2-3Z"/><path fill="#E7CC81" d="M388 260h6l1 3-6-1v3l-3 1-3 1-1 3h-2l2-6h5l1-4Z"/><path fill="#E0B15E" d="m368 173 4 2 3 1 6 6-2-1-6-2v-2l-4-1v3l-3 1-1-2h3v-5Z"/><path fill="#F5E16D" d="m293 347 2 1-2 3h2l1 4h-8l5-8Z"/><path fill="#E2BB6F" d="m367 323 3 1v5l-4 1 2 2-7-1 1-2h2v-3l3-1v-2Z"/><path fill="#F3E0A0" d="M213 316c5 0 7 2 10 6l-6-1-1 2v-2h-2l-1-5Z"/><path fill="#F2DC5E" d="m212 226 2 1 1 5v4h2v5l-2 1-1-3-2-5v-8Z"/><path fill="#D2894B" d="M166 159v3l-5 3-2 1-8 1v-2l11-2v-2l4-2Z"/><path fill="#D3A15F" d="m274 121 1 2 6 1 3 1h3c-4 2-7 3-11 3-2-2-2-2-2-5v-2Z"/><path fill="#EED981" d="M184 350h3l2 4 1 2 1 4c-3-1-5-3-7-6v-4Z"/><path fill="#E4B76D" d="m382 228 4 4h-3c-4 1-6 2-9 5v-4l6-2v-2l2-1Z"/><path fill="#E2BB58" d="M150 308h5l2 2 4 1v3h5v1l-8-1v-2l-7-1-1-3Z"/><path fill="#E5B552" d="m327 164 2 2-1 1c-2 2-2 2-2 6-1 3-1 4-4 6v-10l3-4 2-1Z"/><path fill="#F1DA7D" d="M197 163h1c1 5 1 8-1 12l-4-1v-2l-1-3-2-1 4 1v2l3 1v-9Z"/><path fill="#E3BC70" d="m240 375 1 2h2v2l4 1 1 5h-7l4-1v-2l-4-1-1-6Z"/><path fill="#E3C581" d="m378 279 1 3h2v2h-3l-1 3-4-1v-3h3l2-4Z"/><path fill="#C0C9AF" d="m295 388 17 1c-4 2-5 2-9 2l-2 2v-2h-2v-2l-4 1v-2Z"/><path fill="#D9C691" d="m158 317 7 2v2h3v4l-5-2v-2h-2v-2h-3v-2Z"/><path fill="#E2AD64" d="M136 213h1v3c0 4 0 4 2 6l-6 4 1-11h2v-2Z"/><path fill="#D7954B" d="m343 143 2 4-10-2v-2h8Z"/><path fill="#E9D784" d="M272 382h9l-2 4-3 1v-2h-6l2-1v-2Z"/><path fill="#F2E078" d="M232 351c2 2 2 2 2 5v8h-2v-10l-4-1-1-2h5Z"/><path fill="#D7C17D" d="m149 311 2 1v2l2 1-9-1v-2l-2-1h7Z"/><path fill="#F3E16E" d="m295 296 5 1-3 6h-2l-1-6 1-1Z"/><path fill="#EAC359" d="m253 134 1 4h2l1 11-3-1-1-14Z"/><path fill="#E1AA60" d="m385 223 3 1-2 2-4-1 3-2Zm-6 3 3 1-2 4-4 1v-3h2l1-3Z"/><path fill="#DAD0BA" d="M129 300h2v2h4l1 6h-3l-4-8Z"/><path fill="#E7C66A" d="m383 196 5 3v8h-1v-5h-4v-6Z"/><path fill="#D3D2C7" d="M290 388h3l-2 4h-2v-2l-4 1v2l-2-1c2-4 3-4 7-4Z"/><path fill="#E1B576" d="M237 369c2 3 2 4 2 7l-1 2-4-3v-4h3v-2Z"/><path fill="#E3B459" d="m283 133 2 2-8 7c1-6 1-6 3-8l3-1Z"/><path fill="#D9C5A6" d="M349 378h2v5l-1 3-2 4-1-7 1-2 1-3Z"/><path fill="#F3DF66" d="M272 298c2 6 0 12-2 17h-1v-6l1-3 2-8Z"/><path fill="#E9C150" d="M275 203h1v7l-2 6v3l-2-1v-6h2l1-9Z"/><path fill="#ECCA51" d="M279 187v12l-3 3 3-15Z"/><path fill="#F1DAC7" d="M192 152c1 4 0 6-1 10h-3l4-10Z"/><path fill="#E6C974" d="m366 152-2 4h-2v2l3 1-1 3-1-3h-2v-6l5-1Z"/><path fill="#C68B4A" d="m249 117 2 1v2l-3 2v1l-8 2v-2l5-3 2-2 2-1Z"/><path fill="#F0DB7F" d="M236 366h5l-1 2 1 7h-2l-3-9Z"/><path fill="#E9C66E" d="M186 348h3v2l4 1v2l-5 1v-2l-1-2-2-1 1-1Z"/><path fill="#F3E281" d="m215 321 1 2 3 1v2h-2v2l-4-1 2-6Z"/><path fill="#EED66C" d="m369 261 1 2 3 1-8 4 1-4 3-1v-2Z"/><path fill="#E4DBD1" d="M134 210h3l-1 5h-2l-1 3h-2l3-8Z"/><path fill="#F2E176" d="M212 315h8l1 3h2l-1 3-3-2-6-3-1 2v-3Z"/><path fill="#EACF62" d="M191 383c6 1 6 1 8 3h-4l-2 3-2-2v-4Z"/><path fill="#E3B75B" d="M139 203c4 2 6 3 7 7l-1 3-4-6-2 2v-6Z"/><path fill="#E5CA7E" d="M383 202h4v5l-4 1v-6Z"/><path fill="#CFD0B1" d="m368 161 4 11-2 2-2-13Z"/><path fill="#EAC455" d="m197 141 3 3-9 1c3-4 3-4 6-4Z"/><path fill="#CBC9B7" d="M284 392c-5 3-5 3-9 3l-2-1v-2l4-1h3l4 1Z"/><path fill="#E9C857" d="M335 371h5v8l2 1h-3v-5h-2v-3l-2-1Z"/><path fill="#ECD875" d="M297 364h4l1 4-4 3 1-4h-2v-3Z"/><path fill="#DDC394" d="M350 338h6v3h-5l-1 3v-6Z"/><path fill="#F3E16C" d="m252 274 4 1v5h-4v-6Z"/><path fill="#E8C055" d="M374 269h2v2l2 2-4 4-2-3h2v-5Z"/><path fill="#E7BF5C" d="m373 235-2 1-6 5-2-1 1-3h3v-2h6Z"/><path fill="#E9C18F" d="m135 224-1 8-1 2-1 2h-1c0-4 0-6 2-10l2-2Z"/><path fill="#F4E37E" d="m239 333 4 8h-3l-3-4 2-1v-3Z"/><path fill="#F2DD68" d="M301 308h2l1 5-5 3 2-8Z"/><path fill="#E3C684" d="M383 281h2l1 7-4-1 1-6Z"/><path fill="#E7C157" d="m372 277 4 2v4l-5-1 1-5Z"/><path fill="#DFA155" d="m140 206 5 5-1 2-5-1 1-6Z"/><path fill="#EFD78B" d="M145 192h3v3h3v2h-2l1 6c-2-2-2-3-2-6l-1-4-2-1Z"/><path fill="#E1C775" d="m294 385 1 5-9-2c3-3 4-3 8-3Z"/><path fill="#ECC768" d="m224 352 8 2v7h-1v-6h-5v-2l-2-1Z"/><path fill="#DD9A50" d="m171 321 5 2v3l-5-1-1-3 1-1Z"/><path fill="#E5C075" d="m133 288 2 1v4h2l2 5-4-2-2-8Z"/><path fill="#F0D771" d="M182 289c3 1 5 3 7 6l-5-1-2-5Z"/><path fill="#E6D06E" d="M357 252c2 2 2 2 2 5h-2v2h-2v-6l2-1Z"/><path fill="#E3C160" d="m275 159 1 2h5l-2 5-3-1-1-6Z"/><path fill="#E4B556" d="M186 377h3v3h2v6l-5-9Z"/><path fill="#F0E387" d="m277 374 2 2-1 5h-2l-1-5 2-2Z"/><path fill="#D7C48A" d="M364 333v2h-3l-1 3-3 1 1-5 6-1Z"/><path fill="#F3E18D" d="M265 299h1l-1 12h-1l-1-5v-5l2-2Z"/><path fill="#EFD79F" d="m143 243 3 1v6l-3-1v-6Z"/><path fill="#D99954" d="m135 201 2 1v7l-3 1 1-9Z"/><path fill="#E1DEBD" d="m185 138 4 2-3 1-2 3h-2l3-6Z"/><path fill="#DFC151" d="m335 388 2 2-1 2-7 1-1-2 3-1 4-2Z"/><path fill="#EDDB8A" d="m241 375 4 1h2l2 1 1 3h-2v-2l-5 1v-2h-2v-2Z"/><path fill="#ECCF56" d="m204 369 6 1 1 2h-3v2h-2l-2-5Z"/><path fill="#DEAE6E" d="m377 324-2 1-1 3-3-1v-3h6Z"/><path fill="#F4E26C" d="m223 304 4 1v2l2 1h-2l-1 3-3-7Z"/><path fill="#F1DB78" d="m234 283 3 3v2l-4-1-2-3 3-1Z"/><path fill="#EBC776" d="m136 271 8 1c-3 2-5 2-9 2l1-3Z"/><path fill="#EED1AF" d="M136 224h6v7h-1v-5l-4 1-1-3Z"/><path fill="#E2BE87" d="M137 203h2v7l-2 2v-9Z"/><path fill="#E3AD55" d="M180 165h2l1 6h-3v-6Z"/><path fill="#D59645" d="M158 165c-2 2-2 2-5 2h-2v-2h7Z"/><path fill="#D3DAC1" d="M177 359h3l-1 4h-2v-4Z"/><path fill="#DDD6D7" d="M423 162h3v3h-3v-3Z"/><path fill="#DED8CB" d="M349 118h4v2l-3 1-1-3Z"/><path fill="#CECEC4" d="m163 398 2 1v2h-3l1-3Z"/><path fill="#D1D1C9" d="m163 391 2 1v2h-3l1-3Z"/><path fill="#E1DBCE" d="M438 192h2v3l-3-1 1-2Z"/><path fill="#D4BC92" d="m123 173 4 1-4 1v-2Z"/><path fill="#DCD7CE" d="M276 109h2v3l-3-1 1-2Z"/><path fill="#D7D7D7" d="M157 386h2v3h-2v-3Z"/><path fill="#E9E9DE" d="m97 366 2 1v2l-3-1 1-2Z"/><path fill="#A5CAA9" d="m355 360 3 1-4 1 1-2Z"/><path fill="#E9E4E0" d="M71 311h2v3h-2v-3Z"/><path fill="#EAEAD9" d="m60 309 2 3h-3l1-3Z"/><path fill="#DDDCDC" d="M125 255h3v2h-3v-2Z"/><path fill="#E1DAD2" d="M338 131h3v2h-3v-2Z"/><path fill="#CECECE" d="M441 198h2l-1 3-1-3Z"/><path fill="#C6D5D5" d="m437 172 1 4-2-3 1-1Z"/><path fill="#DCDCD1" d="m222 121 2 2h-3l1-2Z"/><path fill="#DADAD3" d="m160 118 1 3h-2l1-3Z"/><path fill="#E3E3E3" d="M143 409h2v2h-2v-2Z"/><path fill="#DBDBDB" d="m122 393 2 2-2 1v-3Z"/><path fill="#DDCBAB" d="M141 389h2v2h-2v-2Z"/><path fill="#DCDCD3" d="M162 343h2v2h-2v-2Z"/><path fill="#D5BFBF" d="M87 341h2v2h-2v-2Z"/><path fill="#DFDBD6" d="M156 336h2v2h-2v-2Z"/><path fill="#BFD5D5" d="M144 334h2v2h-2v-2Z"/><path fill="#D6C0B9" d="M116 189h2v2h-2v-2Z"/><path fill="#E3D4C1" d="M127 170h2v2h-2v-2Z"/><path fill="#AAD5D5" d="M135 169h2v2h-2v-2Z"/><path fill="#E9E2DD" d="M110 160h2v2h-2v-2Z"/><path fill="#DBDBDB" d="M405 132h2v2h-2v-2Z"/><path fill="#E5E5DC" d="M212 127h2v2h-2v-2Z"/><path fill="#EAEAEA" d="m290 93 3 1h-3v-1Z"/><path fill="#DFDFDF" d="M294 91h2v2h-2v-2Z"/><path fill="#E4CB9A" d="M177 356h2l-1 2-1-2Z"/><path fill="#D2D2D2" d="m154 331 2 1-2 1v-2Z"/><path fill="#E3E3E3" d="m166 125 2 1-2 1v-2Z"/><path fill="#876485" d="m266 117 2 2h-2v-2Z"/><path fill="#DDDDCF" d="m148 417 2 1Z"/><path fill="#AAD5D5" d="m141 403 2 1Z"/><path fill="#DBDBDB" d="m360 382 2 1Z"/><path fill="#E3E3E3" d="m77 332 2 1Z"/><path fill="#DBDBD8" d="m76 266 2 1Z"/><path fill="#DBDBDB" d="m91 254 2 1Z"/><path fill="#D5D5D5" d="m425 173 2 1Z"/><path fill="#5AA" d="m432 169 2 1Z"/><path fill="#E1C395" d="m173 147 2 1Z"/><path fill="#FFFF45" d="m234 115 2 1Z"/></svg>